# xmcd CD database file
#
# Track frame offsets:
#	150
#	10665
#	24350
#	39720
#	51055
#	63277
#	76500
#	87187
#	101635
#	115475
#	126317
#	138077
#	148967
#	159535
#	172162
#
# Disc length: 2425 seconds
#
# Revision: 1
# Processed by: cddbd v1.5.1PL2 Copyright (c) Steve Scherf et al.
# Submitted via: CDex 1.51
#
DISCID=c309770f
DTITLE=Strängnäs Kulturskolas Storband - Strängnäs Kulturskolas Storband
DYEAR=1996
DGENRE=Jazz
TTITLE0=Malaguena
TTITLE1=Mack The Knife
TTITLE2=Basic Basie
TTITLE3=Basin Street Blues
TTITLE4=Monday, Monday
TTITLE5=Fast Break
TTITLE6=Alexander's Ragtime Band
TTITLE7=One Moment In Time
TTITLE8=You Needed Me
TTITLE9=California Dreamin'
TTITLE10=Tears In Heaven
TTITLE11=I Feel Good
TTITLE12=Bluebarry Hill
TTITLE13=Alright, Okey You Win
TTITLE14=Final Countdown
EXTD=YEAR: 1996
EXTT0=
EXTT1=
EXTT2=
EXTT3=
EXTT4=
EXTT5=
EXTT6=
EXTT7=
EXTT8=
EXTT9=
EXTT10=
EXTT11=
EXTT12=
EXTT13=
EXTT14=
PLAYORDER=
